# xmcd
#
# Track frame offsets:
#	151
#	20908
#	36744
#	47071
#	52652
#	62585
#	68041
#	94257
#	103034
#	130366
#	154880
#	169312
#	182320
#	193866
#	206116
#	218388
#	221201
#	232406
#	278646
#	298971
#	305039
#	316186
#	325986
#	341850
#
# Disc length: 4629 seconds
#
# Revision: 1
# Processed by: cddbd v1.5.2PL0 Copyright (c) Steve Scherf et al.
# Submitted via: audiograbber 1.83.01
#
DISCID=84121318
DTITLE=Various Artist - Boll Weevil Here, Boll Weevil Everywhere
DYEAR=2004
DGENRE=Blues
TTITLE0=Charles Griffin - Boll Weevil Rag
TTITLE1=Annie Brewer - Roosevelt Blues
TTITLE2=Richard Amerson - Boll Weevil
TTITLE3=Vera Hall - Boll Weevil
TTITLE4=Richard Amerson - Boll Weevil
TTITLE5=Oakdale Carriere - O Chere 'Tite Fille
TTITLE6=Wilson Jones - Can't Put On My Shoes
TTITLE7=Wilson Jones - Stavin' Chain
TTITLE8=Wilson Jones - Batson
TTITLE9=Wilson Jones - Batson
TTITLE10=Wilson Jones - When I First Got Ready for the War
TTITLE11=Ellis Evans and Jimmy Lewis - When I Leave You Baby
TTITLE12=Ellis Evans and Jimmy Lewis - Cajun Negro Fais Do Dos Tune
TTITLE13=Ernest Rogers - Baby Low Down, Oh, Oh Low Down Dirty Dog
TTITLE14=Sevn Boys with Home-Made Instruments - (Don't) The Moon Look Pretty
TTITLE15=Unidentified - Announcement about Seven Boys
TTITLE16=Sevn Boys with Home-Made Instruments - How Long Blues
TTITLE17=Willie George and Albertine King - Monologue on Early Life/Nothing in th
TTITLE17=e Jungle Any Badder 'n Me
TTITLE18=Willie George and Albertine King - Boll Weevil/Like a Winter Needs the S
TTITLE18=unshine
TTITLE19=Irven ''Gar Mouth'' Lowry - Boll Weevil
TTITLE20=Alf (Chicken Dad) Valentine - Boll Weevil
TTITLE21=Finous (Flat Foot) Rockmore - Monlogue on Coley Jones and Others
TTITLE22=Finous (Flat Foot) Rockmore - Ella Speed
TTITLE23=Finous (Flat Foot) Rockmore - Monologue on His Life
EXTD=Document Records DOCD-5675
EXTT0=
EXTT1=
EXTT2=
EXTT3=
EXTT4=
EXTT5=
EXTT6=
EXTT7=
EXTT8=
EXTT9=
EXTT10=
EXTT11=
EXTT12=
EXTT13=
EXTT14=
EXTT15=
EXTT16=
EXTT17=
EXTT18=
EXTT19=
EXTT20=
EXTT21=
EXTT22=
EXTT23=
PLAYORDER=
